<svg width="129" height="76" viewBox="0 0 129 76" fill="none" xmlns="http://www.w3.org/2000/svg">
<path d="M123.782 63.1369C126.663 64.8643 125.188 68.4936 121.85 68.8682C110.118 70.1846 81.4179 66.938 49.655 69.7348C49.655 80.4486 4.68172 74.6126 4.68172 65.3621C4.68172 56.1115 33.2371 59.4711 70.4208 59.4711C99.8477 59.4711 117.092 59.1256 123.782 63.1369Z" fill="#898989" fill-opacity="0.8"/>
<path d="M56.1684 63.4953C54.0661 63.4953 52.2526 63.0313 50.728 62.1033C49.2129 61.1658 48.0434 59.859 47.2195 58.1828C46.4051 56.4972 45.9979 54.537 45.9979 52.3021C45.9979 50.0673 46.4051 48.0976 47.2195 46.393C48.0434 44.679 49.1892 43.3438 50.657 42.3874C52.1343 41.4215 53.8578 40.9385 55.8275 40.9385C56.9638 40.9385 58.086 41.1279 59.1939 41.5067C60.3019 41.8855 61.3104 42.501 62.2195 43.3533C63.1286 44.1961 63.853 45.3135 64.3928 46.7055C64.9326 48.0976 65.2025 49.8116 65.2025 51.8476V53.268H48.3843V50.3703H61.7934C61.7934 49.1393 61.5472 48.0408 61.0547 47.0749C60.5718 46.109 59.8805 45.3466 58.9809 44.7879C58.0907 44.2292 57.0396 43.9499 55.8275 43.9499C54.4922 43.9499 53.3369 44.2813 52.3615 44.9442C51.3956 45.5976 50.6523 46.4499 50.1314 47.501C49.6106 48.5521 49.3502 49.679 49.3502 50.8817V52.8135C49.3502 54.4612 49.6343 55.858 50.2025 57.0038C50.7801 58.1402 51.5803 59.0067 52.603 59.6033C53.6257 60.1904 54.8142 60.484 56.1684 60.484C57.049 60.484 57.8445 60.3608 58.5547 60.1146C59.2744 59.859 59.8947 59.4802 60.4155 58.9783C60.9364 58.4669 61.3388 57.8324 61.6229 57.0749L64.8615 57.984C64.5206 59.0824 63.9477 60.0483 63.1428 60.8817C62.3379 61.7055 61.3436 62.3495 60.1598 62.8135C58.9761 63.268 57.6456 63.4953 56.1684 63.4953ZM73.6542 33.9499V63.0408H70.3019V33.9499H73.6542ZM83.1463 33.9499V63.0408H79.7941V33.9499H83.1463ZM103.036 54.1203V41.2226H106.389V63.0408H103.036V59.3476H102.809C102.298 60.4555 101.502 61.3978 100.423 62.1743C99.3431 62.9413 97.9794 63.3249 96.3317 63.3249C94.9681 63.3249 93.756 63.0266 92.6954 62.43C91.6347 61.8239 90.8014 60.9148 90.1954 59.7027C89.5893 58.4811 89.2863 56.9423 89.2863 55.0862V41.2226H92.6385V54.859C92.6385 56.4499 93.0836 57.7188 93.9738 58.6658C94.8734 59.6127 96.0192 60.0862 97.4113 60.0862C98.2446 60.0862 99.0921 59.8732 99.9539 59.447C100.825 59.0209 101.554 58.3675 102.141 57.4868C102.738 56.6061 103.036 55.484 103.036 54.1203Z" fill="black"/>
<path d="M18.3464 41.0485C18.3464 57.2319 54.6465 69.1222 36.8696 69.1222C19.0927 69.1222 4.68172 57.2319 4.68172 41.0485C4.68172 24.8651 19.0927 11.7458 36.8696 11.7458C54.6465 11.7458 18.3464 24.8651 18.3464 41.0485Z" fill="#322EFB"/>
<path d="M37.4073 3.10608L37.1805 6.39809" stroke="#3330C2" stroke-width="3" stroke-linecap="round"/>
<path d="M26.0791 1.5L27.1844 6.80928" stroke="#3330C2" stroke-width="3" stroke-linecap="round"/>
<path d="M6.0743 12.8777L10.3287 16.1169" stroke="#3330C2" stroke-width="3" stroke-linecap="round"/>
<path d="M2.5 20.8416L5.63663 21.9911" stroke="#3330C2" stroke-width="3" stroke-linecap="round"/>
<path d="M15.1674 6.37625L18.1257 10.6142" stroke="#3330C2" stroke-width="3" stroke-linecap="round"/>
</svg>
