<svg width="247" height="145" viewBox="0 0 247 145" fill="none" xmlns="http://www.w3.org/2000/svg">
<path d="M228.575 117.125C228.575 124.305 156.617 121.125 98.0747 121.125C87.5747 134.125 20.3214 122.305 20.3214 115.125C20.3214 107.946 65.2793 110.553 123.821 110.553C182.364 110.553 228.575 109.946 228.575 117.125Z" fill="#D9D9D9"/>
<path d="M42.8214 70.0531C42.8214 99.3242 102.593 120.83 73.3214 120.83C44.0504 120.83 20.3214 99.3242 20.3214 70.0531C20.3214 40.7821 44.0504 17.0531 73.3214 17.0531C102.593 17.0531 42.8214 40.7821 42.8214 70.0531Z" fill="#3330C2"/>
<path d="M110.753 115.962C106.549 115.962 102.922 115.034 99.8726 113.178C96.8423 111.303 94.5033 108.69 92.8555 105.337C91.2267 101.966 90.4124 98.0456 90.4124 93.5759C90.4124 89.1062 91.2267 85.1668 92.8555 81.7577C94.5033 78.3297 96.7949 75.6592 99.7305 73.7463C102.685 71.8145 106.132 70.8486 110.071 70.8486C112.344 70.8486 114.588 71.2274 116.804 71.985C119.02 72.7426 121.037 73.9736 122.856 75.6782C124.674 77.3638 126.123 79.5986 127.202 82.3827C128.282 85.1668 128.821 88.5948 128.821 92.6668V95.5077H95.1851V89.7123H122.003C122.003 87.2501 121.511 85.0532 120.526 83.1213C119.56 81.1895 118.178 79.6649 116.378 78.5475C114.598 77.4301 112.496 76.8713 110.071 76.8713C107.401 76.8713 105.09 77.5342 103.14 78.86C101.208 80.1668 99.7211 81.8713 98.6794 83.9736C97.6377 86.0759 97.1169 88.3297 97.1169 90.735V94.5986C97.1169 97.8941 97.6851 100.688 98.8214 102.979C99.9767 105.252 101.577 106.985 103.623 108.178C105.668 109.352 108.045 109.94 110.753 109.94C112.515 109.94 114.106 109.693 115.526 109.201C116.965 108.69 118.206 107.932 119.248 106.928C120.289 105.905 121.094 104.636 121.662 103.121L128.14 104.94C127.458 107.136 126.312 109.068 124.702 110.735C123.092 112.383 121.104 113.671 118.736 114.599C116.369 115.508 113.708 115.962 110.753 115.962ZM145.725 56.8713V115.053H139.02V56.8713H145.725ZM164.709 56.8713V115.053H158.005V56.8713H164.709ZM204.489 97.2123V71.4168H211.194V115.053H204.489V107.667H204.035C203.012 109.883 201.421 111.767 199.262 113.32C197.103 114.854 194.375 115.621 191.08 115.621C188.353 115.621 185.928 115.025 183.807 113.832C181.686 112.619 180.019 110.801 178.807 108.377C177.595 105.934 176.989 102.856 176.989 99.1441V71.4168H183.694V98.6895C183.694 101.871 184.584 104.409 186.364 106.303C188.163 108.197 190.455 109.144 193.239 109.144C194.906 109.144 196.601 108.718 198.324 107.866C200.067 107.013 201.525 105.707 202.699 103.945C203.892 102.184 204.489 99.9395 204.489 97.2123Z" fill="black"/>
<path d="M76.0083 6.01752L75.6346 12.0888" stroke="#3330C2" stroke-width="6" stroke-linecap="round"/>
<path d="M57.3214 3.05316L59.1447 12.8526" stroke="#3330C2" stroke-width="6" stroke-linecap="round"/>
<path d="M23.3214 23.0532L30.3396 29.0319" stroke="#3330C2" stroke-width="6" stroke-linecap="round"/>
<path d="M18.4253 38.7523L23.6014 40.8749" stroke="#3330C2" stroke-width="6" stroke-linecap="round"/>
<path d="M38.3214 10.0532L43.2014 17.8753" stroke="#3330C2" stroke-width="6" stroke-linecap="round"/>
<path d="M10.4881 128.557H11.7331V136.612H10.4881V128.557ZM11.3731 132.082H13.7281V133.117H11.3731V132.082ZM7.39813 136.897C10.1431 136.897 11.8531 137.872 11.8531 139.507C11.8531 141.142 10.1431 142.102 7.39813 142.102C4.65313 142.102 2.94313 141.142 2.94313 139.507C2.94313 137.872 4.65313 136.897 7.39813 136.897ZM7.39813 137.917C5.38813 137.917 4.15813 138.487 4.15813 139.507C4.15813 140.497 5.38813 141.082 7.39813 141.082C9.40813 141.082 10.6381 140.497 10.6381 139.507C10.6381 138.487 9.40813 137.917 7.39813 137.917ZM1.80313 134.527H2.85313C5.65813 134.527 7.23313 134.437 9.04813 134.062L9.19813 135.082C7.32313 135.457 5.71813 135.547 2.85313 135.547H1.80313V134.527ZM1.80313 129.592H7.78813V130.612H3.03313V135.187H1.80313V129.592ZM16.457 134.767H25.892V135.787H16.457V134.767ZM15.002 139.267H27.287V140.287H15.002V139.267ZM18.407 135.457H19.652V139.657H18.407V135.457ZM16.457 129.772H17.702V135.232H16.457V129.772ZM22.667 135.457H23.897V139.657H22.667V135.457ZM33.7395 129.607H39.7395V130.627H33.7395V129.607ZM35.7795 132.637H37.0095V136.027H35.7795V132.637ZM39.2445 129.607H40.4745V130.327C40.4745 131.212 40.4745 132.562 40.1145 134.347L38.8995 134.212C39.2445 132.427 39.2445 131.197 39.2445 130.327V129.607ZM42.3195 128.557H43.5645V138.772H42.3195V128.557ZM42.9945 132.967H45.4995V134.002H42.9945V132.967ZM34.9995 140.797H43.9995V141.817H34.9995V140.797ZM34.9995 137.827H36.2295V141.112H34.9995V137.827ZM33.0495 136.612L32.9145 135.592C35.3295 135.592 38.6595 135.532 41.4045 135.157L41.4945 136.057C38.6745 136.552 35.4345 136.612 33.0495 136.612ZM56.6884 128.542H57.9334V142.132H56.6884V128.542ZM47.5984 137.827H48.7234C50.9884 137.827 53.0134 137.737 55.4134 137.347L55.5484 138.367C53.0884 138.772 51.0484 138.862 48.7234 138.862H47.5984V137.827ZM47.5684 129.817H53.8384V134.662H48.8434V138.217H47.5984V133.642H52.5784V130.837H47.5684V129.817ZM69.2609 129.187C71.2859 129.187 72.7259 130.312 72.7259 131.977C72.7259 133.627 71.2859 134.782 69.2609 134.782C67.2509 134.782 65.8109 133.627 65.8109 131.977C65.8109 130.312 67.2509 129.187 69.2609 129.187ZM69.2609 130.222C67.9409 130.222 66.9959 130.942 66.9959 131.977C66.9959 133.027 67.9409 133.732 69.2609 133.732C70.5809 133.732 71.5259 133.027 71.5259 131.977C71.5259 130.942 70.5809 130.222 69.2609 130.222ZM68.7059 136.282H69.9509V141.697H68.7059V136.282ZM74.7059 128.557H75.9359V142.132H74.7059V128.557ZM64.9709 136.957L64.8059 135.907C67.3259 135.907 70.7609 135.877 73.7459 135.427L73.8359 136.357C70.7759 136.912 67.4459 136.957 64.9709 136.957ZM87.9048 128.572H89.1498V138.742H87.9048V128.572ZM88.7598 133.012H91.1598V134.062H88.7598V133.012ZM78.6648 130.207H86.6748V131.212H78.6648V130.207ZM82.6698 131.962C84.5898 131.962 85.9098 132.967 85.9098 134.497C85.9098 136.012 84.5898 137.017 82.6698 137.017C80.7348 137.017 79.4148 136.012 79.4148 134.497C79.4148 132.967 80.7348 131.962 82.6698 131.962ZM82.6698 132.937C81.4398 132.937 80.5998 133.552 80.5998 134.497C80.5998 135.427 81.4398 136.042 82.6698 136.042C83.8848 136.042 84.7248 135.427 84.7248 134.497C84.7248 133.552 83.8848 132.937 82.6698 132.937ZM82.0398 128.557H83.2848V130.732H82.0398V128.557ZM80.7048 140.797H89.7648V141.817H80.7048V140.797ZM80.7048 137.932H81.9498V141.232H80.7048V137.932ZM106.492 128.542H107.737V142.132H106.492V128.542ZM97.4173 129.697H98.6473V133.282H102.562V129.697H103.807V138.862H97.4173V129.697ZM98.6473 134.272V137.842H102.562V134.272H98.6473ZM114.126 130.732H115.146V131.302C115.146 133.672 113.586 135.637 111.306 136.387L110.691 135.412C112.731 134.767 114.126 133.117 114.126 131.302V130.732ZM114.336 130.732H115.356V131.302C115.356 133.012 116.796 134.542 118.806 135.127L118.236 136.102C115.926 135.412 114.336 133.567 114.336 131.302V130.732ZM111.036 130.147H118.416V131.152H111.036V130.147ZM114.126 128.482H115.356V130.582H114.126V128.482ZM120.306 128.572H121.566V136.597H120.306V128.572ZM112.806 137.287H121.566V141.937H112.806V137.287ZM120.336 138.277H114.021V140.932H120.336V138.277ZM125.795 136.687H127.025V138.262H133.655V136.687H134.9V141.937H125.795V136.687ZM127.025 139.222V140.932H133.655V139.222H127.025ZM124.235 134.737H136.49V135.742H124.235V134.737ZM129.74 128.707H130.805V129.307C130.805 131.662 128.18 133.357 125.39 133.777L124.94 132.802C127.385 132.472 129.74 131.017 129.74 129.307V128.707ZM129.935 128.707H131V129.307C131 130.987 133.385 132.472 135.8 132.802L135.335 133.777C132.575 133.357 129.935 131.632 129.935 129.307V128.707ZM149.888 131.527H152.648V132.532H149.888V131.527ZM149.873 133.957H152.633V134.947H149.873V133.957ZM142.283 129.742H149.873V130.717H142.283V129.742ZM146.123 131.362C147.938 131.362 149.183 132.247 149.183 133.672C149.183 135.067 147.938 135.952 146.123 135.952C144.293 135.952 143.048 135.067 143.048 133.672C143.048 132.247 144.293 131.362 146.123 131.362ZM146.123 132.277C144.983 132.277 144.233 132.817 144.233 133.672C144.233 134.497 144.983 135.052 146.123 135.052C147.248 135.052 148.013 134.497 148.013 133.672C148.013 132.817 147.248 132.277 146.123 132.277ZM145.508 128.392H146.753V130.537H145.508V128.392ZM152.168 128.557H153.413V136.102H152.168V128.557ZM144.683 136.792H153.413V139.747H145.928V141.352H144.713V138.847H152.183V137.722H144.683V136.792ZM144.713 141.022H153.788V141.967H144.713V141.022ZM165.351 128.557H166.596V136.612H165.351V128.557ZM166.236 132.082H168.591V133.117H166.236V132.082ZM162.261 136.897C165.006 136.897 166.716 137.872 166.716 139.507C166.716 141.142 165.006 142.102 162.261 142.102C159.516 142.102 157.806 141.142 157.806 139.507C157.806 137.872 159.516 136.897 162.261 136.897ZM162.261 137.917C160.251 137.917 159.021 138.487 159.021 139.507C159.021 140.497 160.251 141.082 162.261 141.082C164.271 141.082 165.501 140.497 165.501 139.507C165.501 138.487 164.271 137.917 162.261 137.917ZM156.666 134.527H157.716C160.521 134.527 162.096 134.437 163.911 134.062L164.061 135.082C162.186 135.457 160.581 135.547 157.716 135.547H156.666V134.527ZM156.666 129.592H162.651V130.612H157.896V135.187H156.666V129.592ZM179.604 133.912H182.169V134.932H179.604V133.912ZM176.844 132.022H177.804V132.727C177.804 135.427 176.679 138.157 174.699 139.342L173.964 138.397C175.794 137.332 176.844 134.947 176.844 132.727V132.022ZM177.069 132.022H178.029V132.727C178.029 134.887 179.109 137.122 180.939 138.112L180.234 139.042C178.239 137.932 177.069 135.367 177.069 132.727V132.022ZM174.339 131.047H180.534V132.082H174.339V131.047ZM176.844 129.037H178.044V131.842H176.844V129.037ZM184.389 128.557H185.589V142.117H184.389V128.557ZM181.674 128.872H182.844V141.427H181.674V128.872ZM189.338 129.937H197.948V130.957H189.338V129.937ZM187.883 139.192H200.138V140.242H187.883V139.192ZM197.408 129.937H198.623V131.602C198.623 133.597 198.623 135.442 198.053 138.217L196.823 138.097C197.408 135.487 197.408 133.552 197.408 131.602V129.937ZM197.723 133.687V134.617L189.158 135.082L188.978 134.047L197.723 133.687ZM212.665 133.147H216.445V134.167H212.665V133.147ZM209.395 129.727H210.415V132.142C210.415 135.187 208.81 138.097 206.665 139.252L205.87 138.262C207.865 137.272 209.395 134.662 209.395 132.142V129.727ZM209.635 129.727H210.64V132.142C210.64 134.617 212.17 137.077 214.135 138.007L213.4 139.012C211.21 137.902 209.635 135.112 209.635 132.142V129.727ZM215.83 128.542H217.06V142.132H215.83V128.542ZM229.539 128.542H230.784V142.132H229.539V128.542ZM220.464 129.697H221.694V133.282H225.609V129.697H226.854V138.862H220.464V129.697ZM221.694 134.272V137.842H225.609V134.272H221.694ZM238.928 129.487H240.008V130.522C240.008 133.477 237.263 135.772 234.548 136.387L233.993 135.352C236.378 134.902 238.928 132.832 238.928 130.522V129.487ZM239.153 129.487H240.233V130.522C240.233 132.847 242.798 134.902 245.168 135.352L244.613 136.387C241.913 135.772 239.153 133.492 239.153 130.522V129.487ZM233.498 139.267H245.783V140.287H233.498V139.267Z" fill="black"/>
</svg>
